<svg xmlns="http://www.w3.org/2000/svg" width="512" height="512" viewBox="0 0 512 512" fill="none">
  <g transform="translate(64, 165) scale(3.5)">
    <path d="M13.88 27.05L13.88 27.05L13.88 42L5.70 42L5.70 7.08L13.71 7.08L13.71 21Q14.77 18.47 16.72 16.97Q18.68 15.47 21.73 15.47L21.73 15.47Q25.83 15.47 28.31 18.16Q30.80 20.86 30.80 25.31L30.80 25.31L30.80 42L22.62 42L22.62 26.91Q22.62 24.70 21.49 23.45Q20.37 22.20 18.35 22.20L18.35 22.20Q16.36 22.20 15.12 23.47Q13.88 24.75 13.88 27.05Z" fill="#141413"/>
    <path d="M40.37 42L32.19 42L32.19 15.80L39.71 15.80L40.09 21Q41.16 18.05 43.21 16.75Q45.27 15.45 47.63 15.45L47.63 15.45Q50.12 15.45 51.77 16.88Q53.42 18.30 54.38 21.52L54.38 21.52Q55.58 18.28 57.91 16.86Q60.24 15.45 62.89 15.45L62.89 15.45Q66.57 15.45 68.93 17.81Q71.28 20.18 71.28 24.33L71.28 24.33L71.28 42L63.13 42L63.13 26.18Q63.13 24.19 62.08 23.16Q61.04 22.13 59.42 22.13L59.42 22.13Q57.69 22.13 56.68 23.26Q55.67 24.40 55.67 26.27L55.67 26.27L55.67 42L47.82 42L47.82 26.06Q47.82 24.26 46.80 23.19Q45.78 22.13 44.16 22.13L44.16 22.13Q42.50 22.13 41.43 23.25Q40.37 24.38 40.37 26.44L40.37 26.44L40.37 42Z" fill="#141413"/>
    <path d="M83.73 42.49L83.73 42.49Q78.70 42.49 75.45 40.37Q72.20 38.25 71.52 34.50L71.52 34.50L79.12 33.30Q79.61 35.02 80.78 35.88Q81.95 36.75 84.04 36.75L84.04 36.75Q85.75 36.75 86.73 36.15Q87.72 35.55 87.72 34.57L87.72 34.57Q87.72 32.86 84.51 32.23L84.51 32.23L79.94 31.34Q72.18 29.86 72.18 23.79L72.18 23.79Q72.18 19.88 75.31 17.67Q78.44 15.47 83.71 15.47L83.71 15.47Q88.63 15.47 91.61 17.41Q94.59 19.36 95.27 22.73L95.27 22.73L88.05 23.88Q87.25 21.09 83.85 21.09L83.85 21.09Q82.38 21.09 81.36 21.69Q80.34 22.29 80.34 23.30L80.34 23.30Q80.34 24.09 80.97 24.69Q81.60 25.29 83.29 25.62L83.29 25.62L88.30 26.55Q96.02 28.01 96.02 33.63L96.02 33.63Q96.02 36.33 94.43 38.32Q92.85 40.31 90.09 41.40Q87.32 42.49 83.73 42.49Z" fill="#141413"/>
    <circle cx="97" cy="38" r="7" fill="#d97757"/>
  </g>
</svg>
